<svg width="33" height="35" viewBox="0 0 33 35" fill="none" xmlns="http://www.w3.org/2000/svg">
<path d="M16.5 0C7.38508 0 0 7.83266 0 17.5C0 27.1673 7.38508 35 16.5 35C25.6149 35 33 27.1673 33 17.5C33 7.83266 25.6149 0 16.5 0ZM26.0806 19.4758C26.0806 19.9415 25.7214 20.3226 25.2823 20.3226H19.1613V26.8145C19.1613 27.2802 18.802 27.6613 18.3629 27.6613H14.6371C14.198 27.6613 13.8387 27.2802 13.8387 26.8145V20.3226H7.71774C7.27863 20.3226 6.91936 19.9415 6.91936 19.4758V15.5242C6.91936 15.0585 7.27863 14.6774 7.71774 14.6774H13.8387V8.18548C13.8387 7.71976 14.198 7.33871 14.6371 7.33871H18.3629C18.802 7.33871 19.1613 7.71976 19.1613 8.18548V14.6774H25.2823C25.7214 14.6774 26.0806 15.0585 26.0806 15.5242V19.4758Z" fill="#EEEEEE"/>
</svg>
