<svg width="34" height="36" viewBox="0 0 34 36" fill="none" xmlns="http://www.w3.org/2000/svg">
<path d="M4.25 2.25H2.125V31.5C2.125 32.0967 2.34888 32.669 2.7474 33.091C3.14591 33.5129 3.68641 33.75 4.25 33.75H31.875V31.5H4.25V2.25Z" fill="white"/>
<path d="M31.875 10.125H24.4375V12.375H28.2519L20.1875 20.9137L15.6294 16.0763C15.5306 15.9708 15.4131 15.8871 15.2836 15.83C15.1541 15.7729 15.0153 15.7435 14.875 15.7435C14.7347 15.7435 14.5959 15.7729 14.4664 15.83C14.3369 15.8871 14.2194 15.9708 14.1206 16.0763L6.375 24.2887L7.87312 25.875L14.875 18.4613L19.4331 23.2987C19.5319 23.4042 19.6494 23.4879 19.7789 23.545C19.9084 23.6021 20.0472 23.6315 20.1875 23.6315C20.3278 23.6315 20.4666 23.6021 20.5961 23.545C20.7256 23.4879 20.8431 23.4042 20.9419 23.2987L29.75 13.9612V18H31.875V10.125Z" fill="white"/>
</svg>
